# xmcd CD database file generated by Grip 2.93
# 
# Track frame offsets:
#       150
#       10722
#       24665
#       38295
#       55550
#       65012
#       82452
#       93347
#       110800
#       122645
# 
# Disc length: 1832 seconds
# 
# Revision: 3
# Processed by: cddbd v1.4b41PL1 Copyright (c) Steve Scherf et al.
# Submitted via: Grip 2.93
# 
DISCID=7b07260a
DTITLE=K-Bull 93 FM, Utah - Counterfeit Country
DYEAR=1900
DGENRE=
TTITLE0=Crust on his bottom
TTITLE1=Girls do it
TTITLE2=Time marches on
TTITLE3=Bigger than a buick regal
TTITLE4=Every man
TTITLE5=Saw her giving birth
TTITLE6=Great Salt Lake Stank
TTITLE7=Really much too different
TTITLE8=Fever blister
TTITLE9=Hill
EXTD=
EXTT0=
EXTT1=
EXTT2=
EXTT3=
EXTT4=
EXTT5=
EXTT6=
EXTT7=
EXTT8=
EXTT9=
PLAYORDER=
